<?xml version="1.0" encoding="UTF-8" standalone="no"?>
<svg
   xmlns:dc="http://purl.org/dc/elements/1.1/"
   xmlns:cc="http://creativecommons.org/ns#"
   xmlns:rdf="http://www.w3.org/1999/02/22-rdf-syntax-ns#"
   xmlns:svg="http://www.w3.org/2000/svg"
   xmlns="http://www.w3.org/2000/svg"
   xmlns:xlink="http://www.w3.org/1999/xlink"
   xmlns:sodipodi="http://sodipodi.sourceforge.net/DTD/sodipodi-0.dtd"
   xmlns:inkscape="http://www.inkscape.org/namespaces/inkscape"
   width="72"
   height="72"
   viewBox="0 0 19.05 19.05"
   version="1.1"
   id="svg8"
   sodipodi:docname="orangeliner_logo_2022_no-image.svg"
   inkscape:version="1.0.1 (3bc2e813f5, 2020-09-07)"
   inkscape:export-filename="C:\Users\egamasa\Desktop\orangeliner_logo_2022.png"
   inkscape:export-xdpi="66.18"
   inkscape:export-ydpi="66.18">
  <defs
     id="defs2">
    <linearGradient
       inkscape:collect="always"
       id="linearGradient2795">
      <stop
         style="stop-color:#000000;stop-opacity:1;"
         offset="0"
         id="stop2791" />
      <stop
         style="stop-color:#000000;stop-opacity:0;"
         offset="1"
         id="stop2793" />
    </linearGradient>
    <linearGradient
       inkscape:collect="always"
       xlink:href="#linearGradient2795"
       id="linearGradient2797"
       x1="32.763013"
       y1="36.739992"
       x2="54.572621"
       y2="36.739992"
       gradientUnits="userSpaceOnUse" />
  </defs>
  <sodipodi:namedview
     id="base"
     pagecolor="#ffffff"
     bordercolor="#666666"
     borderopacity="1.0"
     inkscape:pageopacity="0.0"
     inkscape:pageshadow="2"
     inkscape:zoom="11.2"
     inkscape:cx="38.9405"
     inkscape:cy="30.74504"
     inkscape:document-units="mm"
     inkscape:current-layer="g891"
     inkscape:document-rotation="0"
     showgrid="false"
     inkscape:window-width="2560"
     inkscape:window-height="1387"
     inkscape:window-x="-8"
     inkscape:window-y="-8"
     inkscape:window-maximized="1"
     fit-margin-top="0"
     fit-margin-left="0"
     fit-margin-right="0"
     fit-margin-bottom="0"
     units="px">
    <inkscape:grid
       type="xygrid"
       id="grid976"
       originx="-26.307147"
       originy="-36.474701" />
  </sodipodi:namedview>
  <metadata
     id="metadata5">
    <rdf:RDF>
      <cc:Work
         rdf:about="">
        <dc:format>image/svg+xml</dc:format>
        <dc:type
           rdf:resource="http://purl.org/dc/dcmitype/StillImage" />
        <dc:title></dc:title>
      </cc:Work>
    </rdf:RDF>
  </metadata>
  <g
     inkscape:label="レイヤー 1"
     inkscape:groupmode="layer"
     id="layer1"
     transform="translate(-26.307147,-36.474703)">
    <g
       aria-label="orangeliner.net"
       transform="scale(0.80295262,1.2454035)"
       id="text835"
       style="font-style:normal;font-weight:normal;font-size:13.1805px;line-height:1.25;font-family:sans-serif;fill:#ff6633;fill-opacity:1;stroke:none;stroke-width:0.33;stroke-linejoin:miter;stroke-miterlimit:4;stroke-dasharray:none;stroke-opacity:1">
      <g
         id="g891">
        <g
           id="g851"
           transform="matrix(0.64004732,0,0,0.64004732,16.676012,11.400518)"
           style="fill:url(#linearGradient2797);fill-opacity:1">
          <path
             d="m 32.763013,44.192526 0.926753,-10.503211 h 6.425494 l -0.926754,10.503211 z m 1.019429,-8.649703 0.154459,-1.853508 h 20.481261 l -0.154459,1.853508 z m 13.437931,8.649703 0.926754,-10.503211 h 6.425494 l -0.926754,10.503211 z m -14.45736,0 0.18535,-1.853508 h 20.481261 l -0.154458,1.853508 z"
             style="font-style:normal;font-variant:normal;font-weight:normal;font-stretch:normal;font-size:31.6332px;font-family:'851Gkktt';-inkscape-font-specification:'851Gkktt';fill:url(#linearGradient2797);fill-opacity:1;stroke:none;stroke-width:1;stroke-linejoin:miter;stroke-miterlimit:4;stroke-dasharray:none;stroke-opacity:1"
             id="path845" />
          <path
             d="m 44.822589,34.296309 0.471079,-5.008851 h 3.266162 l -0.471084,5.008851 z m 0.518189,-1.66872 c 0,0 0.947849,-2.354186 0.07852,-3.340131 h 8.714987 l -0.07852,0.883914 z"
             style="font-style:normal;font-variant:normal;font-weight:normal;font-stretch:normal;font-size:31.6332px;line-height:1.25;font-family:'851Gkktt';-inkscape-font-specification:'851Gkktt';fill:url(#linearGradient2797);fill-opacity:1;stroke:none;stroke-width:0.492349;stroke-linejoin:miter;stroke-miterlimit:4;stroke-dasharray:none;stroke-opacity:1;paint-order:stroke fill markers"
             id="path865-6"
             sodipodi:nodetypes="cccccccccc" />
        </g>
        <g
           aria-label="NO IMAGE"
           transform="scale(1.2454035,0.80295262)"
           id="text15"
           style="font-style:normal;font-weight:normal;font-size:3.88056px;line-height:1.25;font-family:sans-serif;fill:#000000;fill-opacity:1;stroke:none;stroke-width:0.071845">
          <path
             d="m 29.496867,53.617434 q 0,0.04358 -0.01516,0.07769 -0.01516,0.03411 -0.04169,0.05684 -0.02463,0.02274 -0.06063,0.03411 -0.03411,0.0095 -0.07011,0.0095 h -0.212218 q -0.06632,0 -0.115583,-0.01326 -0.04737,-0.01326 -0.08906,-0.04737 -0.03979,-0.036 -0.07769,-0.09474 -0.0379,-0.06063 -0.08527,-0.155374 l -0.610127,-1.146356 q -0.05306,-0.10232 -0.108004,-0.219798 -0.05495,-0.119373 -0.09853,-0.231166 h -0.0038 q 0.0076,0.136426 0.01137,0.272852 0.0038,0.134531 0.0038,0.278536 v 1.282783 q 0,0.01895 -0.01137,0.03411 -0.0095,0.01516 -0.036,0.02653 -0.02463,0.0095 -0.06821,0.01516 -0.04358,0.0057 -0.111793,0.0057 -0.06632,0 -0.109899,-0.0057 -0.04358,-0.0057 -0.06821,-0.01516 -0.02463,-0.01137 -0.03411,-0.02653 -0.0095,-0.01516 -0.0095,-0.03411 V 51.51799 q 0,-0.08906 0.05116,-0.132636 0.05306,-0.04548 0.128847,-0.04548 h 0.267167 q 0.072,0 0.121268,0.01326 0.04927,0.01137 0.08716,0.03979 0.03979,0.02842 0.0739,0.07958 0.03411,0.04926 0.07011,0.123162 l 0.477491,0.896243 q 0.04169,0.08148 0.08148,0.161058 0.04169,0.07769 0.07958,0.157269 0.0379,0.07769 0.0739,0.153479 0.036,0.07579 0.07011,0.151584 h 0.0019 q -0.0057,-0.132636 -0.0095,-0.276641 -0.0019,-0.144005 -0.0019,-0.274747 v -1.150146 q 0,-0.01895 0.01137,-0.03411 0.01137,-0.01516 0.0379,-0.02653 0.02653,-0.01137 0.07011,-0.01516 0.04358,-0.0057 0.111793,-0.0057 0.06442,0 0.108004,0.0057 0.04358,0.0038 0.06632,0.01516 0.02463,0.01137 0.03411,0.02653 0.0095,0.01516 0.0095,0.03411 z"
             style="font-style:normal;font-variant:normal;font-weight:bold;font-stretch:normal;font-size:3.88056px;font-family:Calibri;-inkscape-font-specification:'Calibri Bold';fill:#666666;fill-opacity:1;stroke-width:0.071845"
             id="path844" />
          <path
             d="m 32.236755,52.537395 q 0,0.305064 -0.07579,0.545704 -0.07579,0.24064 -0.225481,0.409278 -0.14969,0.166742 -0.371382,0.255798 -0.219797,0.08716 -0.509703,0.08716 -0.286115,0 -0.500228,-0.0739 -0.212218,-0.07579 -0.354328,-0.229272 -0.142111,-0.153479 -0.214113,-0.390329 -0.07011,-0.236851 -0.07011,-0.560862 0,-0.297485 0.07579,-0.534335 0.07579,-0.238746 0.225482,-0.405489 0.149689,-0.166742 0.369487,-0.255798 0.221692,-0.08906 0.513492,-0.08906 0.278536,0 0.490754,0.0739 0.214113,0.0739 0.356223,0.227377 0.144006,0.153479 0.216008,0.388435 0.0739,0.233061 0.0739,0.551388 z m -0.522967,0.02653 q 0,-0.19327 -0.03032,-0.350539 -0.03032,-0.159163 -0.104215,-0.270957 -0.072,-0.113688 -0.19327,-0.174322 -0.121267,-0.06253 -0.303168,-0.06253 -0.183797,0 -0.306959,0.07011 -0.123162,0.06821 -0.198954,0.183796 -0.07579,0.115583 -0.108004,0.270957 -0.03032,0.153479 -0.03032,0.325906 0,0.200849 0.03032,0.361908 0.03032,0.159163 0.102319,0.272852 0.072,0.113688 0.19327,0.174322 0.121268,0.05874 0.305064,0.05874 0.183796,0 0.306958,-0.06821 0.123163,-0.06821 0.198955,-0.185691 0.07579,-0.117478 0.106109,-0.272852 0.03221,-0.157269 0.03221,-0.333486 z"
             style="font-style:normal;font-variant:normal;font-weight:bold;font-stretch:normal;font-size:3.88056px;font-family:Calibri;-inkscape-font-specification:'Calibri Bold';fill:#666666;fill-opacity:1;stroke-width:0.071845"
             id="path846" />
          <path
             d="m 34.033029,53.723543 q 0,0.01895 -0.01326,0.03411 -0.01137,0.01516 -0.03979,0.02463 -0.02842,0.0095 -0.07579,0.01516 -0.04737,0.0057 -0.121268,0.0057 -0.072,0 -0.121267,-0.0057 -0.04737,-0.0057 -0.07579,-0.01516 -0.02842,-0.0095 -0.04169,-0.02463 -0.01137,-0.01516 -0.01137,-0.03411 v -2.315452 q 0,-0.01895 0.01137,-0.03411 0.01326,-0.01516 0.04169,-0.02463 0.03032,-0.0095 0.07769,-0.01516 0.04737,-0.0057 0.119372,-0.0057 0.0739,0 0.121268,0.0057 0.04737,0.0057 0.07579,0.01516 0.02842,0.0095 0.03979,0.02463 0.01326,0.01516 0.01326,0.03411 z"
             style="font-style:normal;font-variant:normal;font-weight:bold;font-stretch:normal;font-size:3.88056px;font-family:Calibri;-inkscape-font-specification:'Calibri Bold';fill:#666666;fill-opacity:1;stroke-width:0.071845"
             id="path848" />
          <path
             d="m 37.42473,53.723543 q 0,0.01895 -0.01137,0.03411 -0.0095,0.01516 -0.0379,0.02463 -0.02653,0.0095 -0.072,0.01516 -0.04548,0.0057 -0.115583,0.0057 -0.06821,0 -0.113688,-0.0057 -0.04548,-0.0057 -0.072,-0.01516 -0.02653,-0.0095 -0.0379,-0.02463 -0.01137,-0.01516 -0.01137,-0.03411 v -1.99523 h -0.0038 l -0.710552,1.993335 q -0.0076,0.02463 -0.02463,0.04169 -0.01705,0.01516 -0.04737,0.02463 -0.02842,0.0095 -0.0739,0.01137 -0.04548,0.0038 -0.109899,0.0038 -0.06442,0 -0.109898,-0.0057 -0.04548,-0.0038 -0.07579,-0.01326 -0.02842,-0.01137 -0.04547,-0.02653 -0.01705,-0.01516 -0.02274,-0.036 L 35.04296,51.728313 h -0.0038 v 1.99523 q 0,0.01895 -0.01137,0.03411 -0.0095,0.01516 -0.0379,0.02463 -0.02842,0.0095 -0.0739,0.01516 -0.04358,0.0057 -0.113688,0.0057 -0.06821,0 -0.113688,-0.0057 -0.04548,-0.0057 -0.0739,-0.01516 -0.02653,-0.0095 -0.0379,-0.02463 -0.0095,-0.01516 -0.0095,-0.03411 v -2.18471 q 0,-0.09663 0.05116,-0.147795 0.05116,-0.05116 0.136426,-0.05116 h 0.325906 q 0.08716,0 0.14969,0.01516 0.06253,0.01326 0.108004,0.04737 0.04548,0.03221 0.07579,0.08716 0.03032,0.05306 0.05305,0.132636 l 0.530546,1.460895 h 0.0076 l 0.549493,-1.457105 q 0.02463,-0.07958 0.05306,-0.134531 0.03032,-0.05495 0.06821,-0.08906 0.03979,-0.03411 0.09284,-0.04737 0.05306,-0.01516 0.123162,-0.01516 h 0.335381 q 0.05116,0 0.08716,0.01326 0.0379,0.01326 0.06063,0.03979 0.02463,0.02463 0.036,0.06253 0.01326,0.036 0.01326,0.08337 z"
             style="font-style:normal;font-variant:normal;font-weight:bold;font-stretch:normal;font-size:3.88056px;font-family:Calibri;-inkscape-font-specification:'Calibri Bold';fill:#666666;fill-opacity:1;stroke-width:0.071845"
             id="path850" />
          <path
             d="m 39.967558,53.606065 q 0.02274,0.06821 0.02842,0.108004 0.0057,0.03979 -0.01516,0.06063 -0.02084,0.01895 -0.0739,0.02274 -0.05305,0.0057 -0.1459,0.0057 -0.09663,0 -0.151584,-0.0038 -0.05306,-0.0019 -0.08148,-0.0095 -0.02842,-0.0095 -0.03979,-0.02463 -0.01137,-0.01516 -0.01895,-0.03979 l -0.164848,-0.49265 h -0.920875 l -0.155374,0.479386 q -0.0076,0.02653 -0.02084,0.04548 -0.01137,0.01705 -0.03979,0.02842 -0.02653,0.0095 -0.07769,0.01326 -0.04927,0.0038 -0.130741,0.0038 -0.08716,0 -0.136426,-0.0057 -0.04927,-0.0057 -0.06821,-0.02653 -0.01895,-0.02274 -0.01326,-0.06253 0.0057,-0.03979 0.02842,-0.106109 l 0.756027,-2.175236 q 0.01137,-0.03221 0.02653,-0.05116 0.01516,-0.02084 0.04737,-0.03032 0.03411,-0.01137 0.09285,-0.01326 0.05874,-0.0038 0.155374,-0.0038 0.111794,0 0.178112,0.0038 0.06632,0.0019 0.102319,0.01326 0.0379,0.0095 0.05306,0.03032 0.01705,0.02084 0.02842,0.05684 z m -1.125514,-1.79817 h -0.0019 L 38.4934,52.850038 h 0.695393 z"
             style="font-style:normal;font-variant:normal;font-weight:bold;font-stretch:normal;font-size:3.88056px;font-family:Calibri;-inkscape-font-specification:'Calibri Bold';fill:#666666;fill-opacity:1;stroke-width:0.071845"
             id="path852" />
          <path
             d="m 42.229954,51.720734 q 0,0.05495 -0.0057,0.09474 -0.0038,0.03979 -0.01326,0.06442 -0.0076,0.02274 -0.02084,0.03221 -0.01137,0.0095 -0.02842,0.0095 -0.02463,0 -0.07958,-0.03411 -0.05495,-0.03411 -0.1459,-0.0739 -0.09095,-0.03979 -0.217902,-0.0739 -0.125057,-0.03411 -0.2918,-0.03411 -0.178112,0 -0.322117,0.06253 -0.144005,0.06063 -0.246325,0.174322 -0.102319,0.111794 -0.157268,0.270957 -0.05495,0.157269 -0.05495,0.348644 0,0.210324 0.05495,0.371382 0.05684,0.159164 0.157268,0.267168 0.100425,0.108003 0.240641,0.162953 0.14211,0.05495 0.312642,0.05495 0.08337,0 0.164848,-0.01895 0.08148,-0.01895 0.151585,-0.05684 v -0.568441 h -0.464227 q -0.03411,0 -0.05306,-0.04169 -0.01895,-0.04358 -0.01895,-0.1459 0,-0.05306 0.0038,-0.08906 0.0057,-0.036 0.01516,-0.05684 0.0095,-0.02274 0.02274,-0.03221 0.01326,-0.01137 0.03032,-0.01137 h 0.828029 q 0.03032,0 0.05306,0.01137 0.02463,0.0095 0.04169,0.03032 0.01895,0.02084 0.02842,0.05116 0.0095,0.02842 0.0095,0.06632 v 0.975824 q 0,0.05684 -0.02084,0.100425 -0.01895,0.04169 -0.08148,0.06632 -0.06063,0.02463 -0.151584,0.05116 -0.09095,0.02653 -0.189481,0.04547 -0.09663,0.01895 -0.197059,0.02842 -0.09853,0.0095 -0.198955,0.0095 -0.293695,0 -0.526756,-0.08337 -0.231166,-0.08527 -0.392224,-0.24443 -0.161059,-0.161058 -0.246325,-0.39033 -0.08527,-0.231166 -0.08527,-0.522966 0,-0.301274 0.09095,-0.540019 0.09095,-0.24064 0.257693,-0.407383 0.166743,-0.168638 0.401699,-0.257693 0.23685,-0.08906 0.526755,-0.08906 0.159164,0 0.289905,0.02274 0.130742,0.02084 0.227377,0.05306 0.09853,0.03032 0.162953,0.06632 0.06442,0.036 0.08906,0.06253 0.02653,0.02653 0.0379,0.07579 0.01137,0.04737 0.01137,0.14211 z"
             style="font-style:normal;font-variant:normal;font-weight:bold;font-stretch:normal;font-size:3.88056px;font-family:Calibri;-inkscape-font-specification:'Calibri Bold';fill:#666666;fill-opacity:1;stroke-width:0.071845"
             id="path854" />
          <path
             d="m 44.189182,53.596591 q 0,0.05495 -0.0057,0.09285 -0.0038,0.036 -0.01326,0.05874 -0.0095,0.02274 -0.02463,0.03411 -0.01326,0.0095 -0.03032,0.0095 h -1.231623 q -0.06253,0 -0.106109,-0.036 -0.04169,-0.0379 -0.04169,-0.121267 v -2.13734 q 0,-0.08337 0.04169,-0.119372 0.04358,-0.0379 0.106109,-0.0379 h 1.224043 q 0.01705,0 0.03032,0.0095 0.01326,0.0095 0.02274,0.03411 0.0095,0.02274 0.01326,0.06063 0.0057,0.036 0.0057,0.09284 0,0.05306 -0.0057,0.09095 -0.0038,0.036 -0.01326,0.05874 -0.0095,0.02274 -0.02274,0.03411 -0.01326,0.0095 -0.03032,0.0095 h -0.875399 v 0.598758 h 0.740868 q 0.01705,0 0.03032,0.01137 0.01516,0.0095 0.02463,0.03221 0.0095,0.02084 0.01326,0.05874 0.0057,0.036 0.0057,0.08906 0,0.05495 -0.0057,0.09095 -0.0038,0.036 -0.01326,0.05874 -0.0095,0.02084 -0.02463,0.03032 -0.01326,0.0095 -0.03032,0.0095 h -0.740868 v 0.691604 h 0.882979 q 0.01705,0 0.03032,0.01137 0.01516,0.0095 0.02463,0.03221 0.0095,0.02274 0.01326,0.06063 0.0057,0.036 0.0057,0.09095 z"
             style="font-style:normal;font-variant:normal;font-weight:bold;font-stretch:normal;font-size:3.88056px;font-family:Calibri;-inkscape-font-specification:'Calibri Bold';fill:#666666;fill-opacity:1;stroke-width:0.071845"
             id="path856" />
        </g>
      </g>
    </g>
  </g>
</svg>
